<?xml version="1.0" standalone="no"?>
<!DOCTYPE svg PUBLIC "-//W3C//DTD SVG 20010904//EN"
 "http://www.w3.org/TR/2001/REC-SVG-20010904/DTD/svg10.dtd">
<svg version="1.0" xmlns="http://www.w3.org/2000/svg"
 width="1479.000000pt" height="830.000000pt" viewBox="0 0 1479.000000 830.000000"
 preserveAspectRatio="xMidYMid meet">

<g transform="translate(0.000000,830.000000) scale(0.100000,-0.100000)"
fill="#000000" stroke="none">
<path d="M10565 7873 l29 -33 -29 -32 -30 -33 35 33 35 32 -35 33 -35 32 30
-32z"/>
<path d="M5566 7842 c-2 -4 4 -8 14 -8 10 0 16 4 14 8 -3 4 -9 8 -14 8 -5 0
-11 -4 -14 -8z"/>
<path d="M6132 7836 c7 -8 15 -12 17 -11 5 6 -10 25 -20 25 -5 0 -4 -6 3 -14z"/>
<path d="M6290 7846 c0 -2 7 -7 16 -10 8 -3 12 -2 9 4 -6 10 -25 14 -25 6z"/>
<path d="M6780 7846 c0 -2 7 -7 16 -10 8 -3 12 -2 9 4 -6 10 -25 14 -25 6z"/>
<path d="M6836 7842 c-2 -4 4 -8 14 -8 10 0 16 4 14 8 -3 4 -9 8 -14 8 -5 0
-11 -4 -14 -8z"/>
<path d="M7556 7842 c-2 -4 4 -8 14 -8 10 0 16 4 14 8 -3 4 -9 8 -14 8 -5 0
-11 -4 -14 -8z"/>
<path d="M7618 7843 c7 -3 16 -2 19 1 4 3 -2 6 -13 5 -11 0 -14 -3 -6 -6z"/>
<path d="M8122 7836 c7 -8 15 -12 17 -11 5 6 -10 25 -20 25 -5 0 -4 -6 3 -14z"/>
<path d="M8778 7843 c7 -3 16 -2 19 1 4 3 -2 6 -13 5 -11 0 -14 -3 -6 -6z"/>
<path d="M8948 7843 c7 -3 16 -2 19 1 4 3 -2 6 -13 5 -11 0 -14 -3 -6 -6z"/>
<path d="M9546 7842 c-2 -4 4 -8 14 -8 10 0 16 4 14 8 -3 4 -9 8 -14 8 -5 0
-11 -4 -14 -8z"/>
<path d="M9605 7840 c-3 -6 1 -7 9 -4 18 7 21 14 7 14 -6 0 -13 -4 -16 -10z"/>
<path d="M10110 7840 c12 -8 12 -11 -3 -28 -23 -25 -21 -32 6 -31 18 1 18 2 4
6 -17 4 -17 6 -2 23 17 19 13 40 -8 40 -7 0 -6 -4 3 -10z"/>
<path d="M10155 7841 c-3 -6 0 -8 9 -5 9 4 16 -2 19 -18 5 -23 5 -23 4 1 -2
26 -21 39 -32 22z"/>
<path d="M10264 7839 c-4 -7 1 -18 12 -26 16 -12 17 -15 4 -24 -13 -9 -13 -10
0 -6 9 2 15 15 15 32 0 30 -18 44 -31 24z m26 -9 c0 -5 -4 -10 -10 -10 -5 0
-10 5 -10 10 0 6 5 10 10 10 6 0 10 -4 10 -10z"/>
<path d="M6201 7814 c0 -11 3 -14 6 -6 3 7 2 16 -1 19 -3 4 -6 -2 -5 -13z"/>
<path d="M6921 7814 c0 -11 3 -14 6 -6 3 7 2 16 -1 19 -3 4 -6 -2 -5 -13z"/>
<path d="M8191 7814 c0 -11 3 -14 6 -6 3 7 2 16 -1 19 -3 4 -6 -2 -5 -13z"/>
<path d="M8821 7814 c0 -11 3 -14 6 -6 3 7 2 16 -1 19 -3 4 -6 -2 -5 -13z"/>
<path d="M8911 7814 c0 -11 3 -14 6 -6 3 7 2 16 -1 19 -3 4 -6 -2 -5 -13z"/>
<path d="M6300 7811 c13 -10 13 -12 0 -22 -13 -9 -13 -10 0 -6 8 2 15 10 15
17 0 7 -7 15 -15 17 -13 4 -13 3 0 -6z"/>
<path d="M7618 7813 c7 -3 16 -2 19 1 4 3 -2 6 -13 5 -11 0 -14 -3 -6 -6z"/>
<path d="M8270 7811 c0 -5 9 -7 20 -4 11 3 20 7 20 9 0 2 -9 4 -20 4 -11 0
-20 -4 -20 -9z"/>
<path d="M9620 7811 c13 -10 13 -12 0 -22 -13 -9 -13 -10 0 -6 8 2 15 10 15
17 0 7 -7 15 -15 17 -13 4 -13 3 0 -6z"/>
<path d="M5570 7786 c7 -7 13 -7 20 0 6 6 3 10 -10 10 -13 0 -16 -4 -10 -10z"/>
<path d="M6840 7786 c7 -7 13 -7 20 0 6 6 3 10 -10 10 -13 0 -16 -4 -10 -10z"/>
<path d="M6953 7793 c9 -2 23 -2 30 0 6 3 -1 5 -18 5 -16 0 -22 -2 -12 -5z"/>
<path d="M7560 7786 c7 -7 13 -7 20 0 6 6 3 10 -10 10 -13 0 -16 -4 -10 -10z"/>
<path d="M9550 7786 c7 -7 13 -7 20 0 6 6 3 10 -10 10 -13 0 -16 -4 -10 -10z"/>
<path d="M10157 7789 c7 -7 15 -10 18 -7 3 3 -2 9 -12 12 -14 6 -15 5 -6 -5z"/>
<path d="M5458 7783 c7 -3 16 -2 19 1 4 3 -2 6 -13 5 -11 0 -14 -3 -6 -6z"/>
<path d="M5628 7783 c7 -3 16 -2 19 1 4 3 -2 6 -13 5 -11 0 -14 -3 -6 -6z"/>
<path d="M6118 7783 c6 -2 18 -2 25 0 6 3 1 5 -13 5 -14 0 -19 -2 -12 -5z"/>
<path d="M6778 7783 c6 -2 18 -2 25 0 6 3 1 5 -13 5 -14 0 -19 -2 -12 -5z"/>
<path d="M7448 7783 c7 -3 16 -2 19 1 4 3 -2 6 -13 5 -11 0 -14 -3 -6 -6z"/>
<path d="M7618 7783 c7 -3 16 -2 19 1 4 3 -2 6 -13 5 -11 0 -14 -3 -6 -6z"/>
<path d="M8108 7783 c6 -2 18 -2 25 0 6 3 1 5 -13 5 -14 0 -19 -2 -12 -5z"/>
<path d="M8778 7783 c7 -3 16 -2 19 1 4 3 -2 6 -13 5 -11 0 -14 -3 -6 -6z"/>
<path d="M9438 7783 c7 -3 16 -2 19 1 4 3 -2 6 -13 5 -11 0 -14 -3 -6 -6z"/>
<path d="M4803 7190 c0 -30 2 -43 4 -27 2 15 2 39 0 55 -2 15 -4 2 -4 -28z"/>
<path d="M8192 7223 c-4 -10 -5 -34 -1 -53 6 -35 6 -35 9 -5 1 17 3 40 4 53 3
27 0 28 -12 5z"/>
<path d="M11702 7190 c0 -40 2 -47 7 -26 9 42 29 44 34 4 l5 -33 -2 35 c-1 24
-6 35 -16 35 -8 0 -18 9 -22 20 -3 11 -6 -4 -6 -35z"/>
<path d="M1300 7211 c0 -14 -8 -21 -27 -24 l-28 -4 27 -2 c19 -1 28 -7 31 -23
2 -13 5 -2 6 25 0 26 -1 47 -4 47 -3 0 -5 -9 -5 -19z"/>
<path d="M4690 7220 c0 -5 5 -10 10 -10 6 0 10 5 10 10 0 6 -4 10 -10 10 -5 0
-10 -4 -10 -10z"/>
<path d="M11521 7183 c1 -27 4 -38 6 -26 2 12 12 24 21 26 15 4 15 5 0 6 -10
0 -18 7 -18 15 0 8 8 17 18 19 13 4 11 5 -5 6 -21 1 -23 -3 -22 -46z"/>
<path d="M11908 7223 c7 -3 16 -2 19 1 4 3 -2 6 -13 5 -11 0 -14 -3 -6 -6z"/>
<path d="M8359 7214 c-3 -20 3 -59 9 -66 4 -4 7 9 6 28 -1 31 -12 60 -15 38z"/>
<path d="M11880 7205 c0 -7 9 -17 20 -20 27 -9 25 -33 -2 -38 l-23 -4 23 -2
c34 -2 38 26 8 54 -17 16 -26 19 -26 10z"/>
<path d="M1370 7203 c5 -2 10 -9 10 -14 0 -14 -28 -11 -34 4 -3 6 -4 -1 -3
-18 1 -22 7 -30 22 -32 16 -1 16 -1 3 3 -25 7 -22 24 3 24 23 0 24 31 1 36 -7
1 -8 0 -2 -3z"/>
<path d="M1433 7204 c20 -6 23 -24 5 -24 -9 0 -10 -3 -2 -8 6 -4 14 -14 17
-22 4 -8 5 1 4 20 -1 27 -7 35 -22 37 -16 1 -16 1 -2 -3z"/>
<path d="M1484 7196 c-8 -22 -1 -49 14 -52 7 -1 8 0 2 3 -14 7 -13 50 3 56 9
4 9 6 -1 6 -7 1 -15 -5 -18 -13z"/>
<path d="M1572 7198 c-17 -17 -15 -45 4 -52 24 -9 31 -7 12 5 -10 5 -18 16
-18 24 0 8 8 19 18 24 9 6 12 11 7 11 -6 0 -16 -5 -23 -12z"/>
<path d="M1630 7195 c-15 -18 -4 -46 21 -53 8 -2 5 2 -5 10 -12 9 -17 21 -13
32 10 25 35 19 40 -9 4 -23 4 -23 3 2 -1 32 -26 42 -46 18z"/>
<path d="M1748 7180 c-3 -17 -1 -33 4 -36 4 -3 8 11 8 30 0 44 -6 47 -12 6z"/>
<path d="M1817 7203 c6 -4 13 -22 16 -38 4 -27 5 -27 3 4 0 21 -7 36 -16 38
-10 3 -11 2 -3 -4z"/>
<path d="M1868 7203 c7 -3 16 -2 19 1 4 3 -2 6 -13 5 -11 0 -14 -3 -6 -6z"/>
<path d="M4765 7200 c-3 -6 1 -7 9 -4 18 7 21 14 7 14 -6 0 -13 -4 -16 -10z"/>
<path d="M4843 7175 c0 -22 2 -30 4 -17 2 12 2 30 0 40 -3 9 -5 -1 -4 -23z"/>
<path d="M4867 7203 c6 -4 13 -22 16 -38 4 -27 5 -27 3 4 0 21 -7 36 -16 38
-10 3 -11 2 -3 -4z"/>
<path d="M4907 7203 c6 -4 13 -22 16 -38 4 -27 5 -27 3 4 0 21 -7 36 -16 38
-10 3 -11 2 -3 -4z"/>
<path d="M4963 7175 c0 -22 2 -30 4 -17 2 12 2 30 0 40 -3 9 -5 -1 -4 -23z"/>
<path d="M4994 7198 c-4 -6 0 -16 9 -23 22 -16 21 -22 0 -28 -16 -4 -16 -5 -1
-6 26 -2 33 20 12 36 -16 12 -17 15 -4 23 9 6 10 10 3 10 -6 0 -15 -5 -19 -12z"/>
<path d="M5054 7198 c-4 -6 0 -16 9 -23 22 -16 21 -22 0 -28 -16 -4 -16 -5 -1
-6 26 -2 33 20 12 36 -16 12 -17 15 -4 23 9 6 10 10 3 10 -6 0 -15 -5 -19 -12z"/>
<path d="M5115 7201 c-4 -7 0 -8 10 -4 10 3 21 0 27 -8 8 -12 9 -11 5 1 -5 18
-33 25 -42 11z"/>
<path d="M5195 7200 c-3 -6 1 -7 9 -4 18 7 21 14 7 14 -6 0 -13 -4 -16 -10z"/>
<path d="M8250 7201 c13 -10 13 -12 0 -21 -9 -6 -10 -10 -3 -10 6 0 14 -8 17
-17 2 -10 4 -3 3 16 -1 21 -8 36 -17 38 -13 4 -13 3 0 -6z"/>
<path d="M8423 7204 c20 -6 23 -24 5 -24 -9 0 -10 -3 -2 -8 6 -4 14 -14 17
-22 4 -8 5 1 4 20 -1 27 -7 35 -22 37 -16 1 -16 1 -2 -3z"/>
<path d="M8510 7195 c7 -9 15 -13 17 -11 7 7 -7 26 -19 26 -6 0 -6 -6 2 -15z"/>
<path d="M8620 7203 c5 -2 10 -9 10 -14 0 -14 -28 -11 -34 4 -3 6 -4 -1 -3
-18 1 -22 7 -30 22 -32 16 -1 16 -1 3 3 -25 7 -22 24 3 24 23 0 24 31 1 36 -7
1 -8 0 -2 -3z"/>
<path d="M8660 7176 c0 -20 2 -36 4 -36 8 0 12 61 4 66 -4 3 -8 -11 -8 -30z"/>
<path d="M8748 7203 c7 -3 16 -2 19 1 4 3 -2 6 -13 5 -11 0 -14 -3 -6 -6z"/>
<path d="M8823 7200 c9 -6 17 -18 17 -26 0 -20 -30 -30 -41 -13 -6 10 -9 11
-9 1 0 -21 30 -26 48 -8 18 18 8 47 -19 53 -8 3 -7 0 4 -7z"/>
<path d="M11590 7195 c-15 -18 -4 -46 21 -53 8 -2 5 2 -5 10 -12 9 -17 21 -13
32 10 25 35 19 40 -9 4 -23 4 -23 3 2 -1 32 -26 42 -46 18z"/>
<path d="M11800 7201 c13 -10 13 -12 0 -21 -9 -6 -10 -10 -3 -10 6 0 14 -8 17
-17 2 -10 4 -3 3 16 -1 21 -8 36 -17 38 -13 4 -13 3 0 -6z"/>
<path d="M11980 7201 c13 -10 13 -12 0 -21 -9 -6 -10 -10 -3 -10 6 0 14 -8 17
-17 2 -10 4 -3 3 16 -1 21 -8 36 -17 38 -13 4 -13 3 0 -6z"/>
<path d="M12070 7206 c0 -2 7 -6 15 -10 8 -3 15 -1 15 4 0 6 -7 10 -15 10 -8
0 -15 -2 -15 -4z"/>
<path d="M12133 7175 c0 -22 2 -30 4 -17 2 12 2 30 0 40 -3 9 -5 -1 -4 -23z"/>
<path d="M12183 7175 c0 -22 2 -30 4 -17 2 12 2 30 0 40 -3 9 -5 -1 -4 -23z"/>
<path d="M12233 7204 c20 -6 23 -24 5 -24 -9 0 -10 -3 -2 -8 6 -4 14 -14 17
-22 4 -8 5 1 4 20 -1 27 -7 35 -22 37 -16 1 -16 1 -2 -3z"/>
<path d="M4711 7193 c-1 -7 -10 -13 -21 -13 -11 0 -20 -4 -20 -9 0 -5 9 -7 20
-4 13 4 26 -1 36 -13 15 -18 15 -18 6 1 -5 11 -12 27 -15 35 -3 9 -6 10 -6 3z"/>
<path d="M5205 7180 l-30 -8 33 -1 c17 0 32 4 32 9 0 6 -1 9 -2 9 -2 -1 -16
-5 -33 -9z"/>
<path d="M8094 7167 c-3 -10 -3 -21 0 -24 3 -4 6 1 6 10 0 11 8 17 25 17 14 0
25 3 25 8 0 16 -50 6 -56 -11z"/>
<path d="M8562 7165 c0 -16 2 -22 5 -12 2 9 2 23 0 30 -3 6 -5 -1 -5 -18z"/>
<path d="M5270 7171 c13 -10 13 -12 0 -22 -13 -9 -13 -10 0 -6 8 2 15 10 15
17 0 7 -7 15 -15 17 -13 4 -13 3 0 -6z"/>
<path d="M8310 7171 c13 -10 13 -12 0 -22 -13 -9 -13 -10 0 -6 8 2 15 10 15
17 0 7 -7 15 -15 17 -13 4 -13 3 0 -6z"/>
<path d="M8880 7171 c13 -10 13 -12 0 -22 -13 -9 -13 -10 0 -6 8 2 15 10 15
17 0 7 -7 15 -15 17 -13 4 -13 3 0 -6z"/>
<path d="M12067 7173 c-10 -10 -8 -33 3 -33 5 0 7 6 4 14 -3 8 2 16 13 19 14
4 14 5 2 6 -9 0 -19 -2 -22 -6z"/>
<path d="M1410 7161 c0 -6 4 -13 10 -16 6 -3 7 1 4 9 -7 18 -14 21 -14 7z"/>
<path d="M5150 7161 c0 -8 -8 -11 -20 -8 -11 3 -18 1 -14 -4 3 -5 11 -9 19 -9
16 0 30 18 21 27 -3 4 -6 1 -6 -6z"/>
<path d="M8400 7161 c0 -10 19 -25 25 -20 1 2 -3 10 -11 17 -8 7 -14 8 -14 3z"/>
<path d="M12210 7161 c0 -10 19 -25 25 -20 1 2 -3 10 -11 17 -8 7 -14 8 -14 3z"/>
<path d="M1710 7150 c0 -5 5 -10 11 -10 5 0 7 5 4 10 -3 6 -8 10 -11 10 -2 0
-4 -4 -4 -10z"/>
<path d="M1870 7150 c0 -5 5 -10 11 -10 5 0 7 5 4 10 -3 6 -8 10 -11 10 -2 0
-4 -4 -4 -10z"/>
<path d="M4767 7149 c7 -7 15 -10 18 -7 3 3 -2 9 -12 12 -14 6 -15 5 -6 -5z"/>
<path d="M5198 7148 c5 -5 16 -8 23 -6 8 3 3 7 -10 11 -17 4 -21 3 -13 -5z"/>
<path d="M8227 7149 c7 -7 15 -10 18 -7 3 3 -2 9 -12 12 -14 6 -15 5 -6 -5z"/>
<path d="M8750 7150 c0 -5 5 -10 11 -10 5 0 7 5 4 10 -3 6 -8 10 -11 10 -2 0
-4 -4 -4 -10z"/>
<path d="M11777 7149 c7 -7 15 -10 18 -7 3 3 -2 9 -12 12 -14 6 -15 5 -6 -5z"/>
<path d="M11957 7149 c7 -7 15 -10 18 -7 3 3 -2 9 -12 12 -14 6 -15 5 -6 -5z"/>
<path d="M2872 6958 c-2 -44 0 -48 21 -47 16 1 17 3 5 6 -12 3 -18 17 -21 46
l-4 42 -1 -47z"/>
<path d="M3063 6994 c19 -6 23 -30 5 -36 -8 -3 -7 -6 4 -10 11 -5 15 0 14 20
-1 19 -7 27 -21 29 -16 1 -16 1 -2 -3z"/>
<path d="M3117 6985 c-8 -20 2 -45 18 -45 7 0 16 -6 19 -12 3 -7 4 5 3 27 -2
42 -29 62 -40 30z m33 -15 c0 -11 -4 -20 -9 -20 -14 0 -23 18 -16 30 10 17 25
11 25 -10z"/>
<path d="M6297 6992 c6 -4 13 -25 16 -47 l4 -40 1 42 c1 23 8 44 15 46 6 3 -1
6 -18 6 -17 0 -25 -3 -18 -7z"/>
<path d="M6362 6955 c1 -39 2 -42 5 -16 3 26 7 31 14 20 5 -8 9 -9 9 -3 0 5
-7 19 -15 30 -13 17 -14 15 -13 -31z"/>
<path d="M6471 6953 c1 -26 3 -41 6 -32 2 10 13 19 24 22 29 8 22 51 -8 55
-21 3 -23 0 -22 -45z m39 17 c0 -11 -7 -20 -15 -20 -8 0 -15 9 -15 20 0 11 7
20 15 20 8 0 15 -9 15 -20z"/>
<path d="M6599 6979 c-8 -16 -8 -28 0 -46 19 -42 59 -8 47 40 -8 32 -31 35
-47 6z m36 -24 c0 -16 -6 -30 -12 -32 -9 -3 -13 7 -13 32 0 25 4 35 13 33 6
-3 12 -17 12 -33z"/>
<path d="M6713 6970 c-20 -32 -21 -35 -5 -39 9 -2 20 -8 24 -15 6 -8 8 -7 8 2
0 7 13 12 30 12 17 0 30 -5 30 -10 0 -6 6 -5 14 2 8 7 10 15 6 18 -5 3 -10 19
-12 35 l-3 30 -20 -32 c-10 -18 -25 -33 -32 -33 -6 0 -13 15 -15 33 l-3 32
-22 -35z m13 -27 c-10 -10 -19 5 -10 18 6 11 8 11 12 0 2 -7 1 -15 -2 -18z
m70 0 c-10 -10 -19 5 -10 18 6 11 8 11 12 0 2 -7 1 -15 -2 -18z"/>
<path d="M9723 6993 c9 -2 25 -2 35 0 9 3 1 5 -18 5 -19 0 -27 -2 -17 -5z"/>
<path d="M10330 6990 c-9 -6 -10 -10 -3 -10 6 0 14 -17 16 -37 3 -35 4 -34 5
10 1 26 1 47 0 47 -2 0 -10 -5 -18 -10z"/>
<path d="M10393 6993 c18 -5 23 -28 7 -38 -5 -3 -15 -15 -20 -26 -10 -17 -7
-19 22 -18 29 1 30 2 9 8 -21 6 -22 8 -7 20 9 7 16 24 16 37 0 19 -5 24 -22
23 -17 -1 -19 -2 -5 -6z"/>
<path d="M10450 6990 c-9 -6 -10 -10 -3 -10 6 0 14 -17 16 -37 3 -35 4 -34 5
10 1 26 1 47 0 47 -2 0 -10 -5 -18 -10z"/>
<path d="M10525 6980 c-8 -25 1 -40 23 -40 15 -1 15 -2 -2 -15 -11 -8 -16 -15
-10 -15 29 1 49 42 34 71 -14 25 -37 24 -45 -1z m35 -10 c0 -11 -4 -20 -9 -20
-14 0 -23 18 -16 30 10 17 25 11 25 -10z"/>
<path d="M10600 6981 c0 -10 7 -21 15 -25 21 -7 19 -33 -2 -40 -14 -4 -14 -4
2 -3 25 3 33 44 11 53 -21 8 -20 21 2 27 13 4 11 5 -5 6 -16 1 -23 -5 -23 -18z"/>
<path d="M10664 6989 c-10 -17 13 -36 27 -22 12 12 4 33 -11 33 -5 0 -12 -5
-16 -11z m26 -9 c0 -5 -4 -10 -10 -10 -5 0 -10 5 -10 10 0 6 5 10 10 10 6 0
10 -4 10 -10z"/>
<path d="M13191 7000 c-1 -3 5 -22 12 -42 l13 -37 12 31 c9 25 9 29 0 20 -9
-9 -15 -7 -25 10 -7 13 -12 21 -12 18z"/>
<path d="M13320 6955 c0 -25 5 -45 10 -45 6 0 10 10 10 23 l1 22 19 -24 c20
-24 27 -18 10 9 -5 9 -5 19 1 27 15 17 2 33 -27 33 -22 0 -24 -4 -24 -45z m42
20 c0 -5 -5 -11 -11 -13 -6 -2 -11 4 -11 13 0 9 5 15 11 13 6 -2 11 -8 11 -13z"/>
<path d="M13403 6983 c-4 -10 2 -23 16 -34 l23 -19 -23 -9 -24 -10 23 0 c32
-1 40 27 13 45 -26 18 -27 31 -3 37 16 4 16 5 -1 6 -10 0 -20 -6 -24 -16z"/>
<path d="M13509 6996 c-8 -9 3 -86 12 -86 5 0 9 20 9 45 0 40 -7 54 -21 41z"/>
<path d="M13563 6993 c13 -3 17 -11 13 -24 -16 -51 -15 -60 3 -24 26 53 26 55
-6 54 -19 -1 -22 -3 -10 -6z"/>
<path d="M13620 6981 c-8 -17 -7 -23 10 -33 25 -16 25 -25 3 -31 -17 -4 -17
-5 0 -6 23 -1 45 45 31 67 -16 24 -31 25 -44 3z m35 -11 c0 -7 -6 -15 -12 -17
-8 -3 -13 4 -13 17 0 13 5 20 13 18 6 -3 12 -11 12 -18z"/>
<path d="M13721 6953 c2 -47 2 -47 9 -13 l7 35 13 -34 13 -34 18 34 17 34 5
-35 c3 -30 4 -28 5 13 2 54 -11 61 -28 15 l-12 -33 -16 33 c-22 45 -32 40 -31
-15z"/>
<path d="M13860 6955 c0 -25 5 -45 10 -45 6 0 10 20 10 45 0 25 -4 45 -10 45
-5 0 -10 -20 -10 -45z"/>
<path d="M6888 6964 c10 -5 9 -9 -4 -18 -21 -16 -11 -36 17 -36 29 0 23 54 -6
57 -11 2 -14 0 -7 -3z m17 -34 c-3 -5 -10 -10 -16 -10 -5 0 -9 5 -9 10 0 6 7
10 16 10 8 0 12 -4 9 -10z"/>
<path d="M6942 6940 c0 -19 2 -27 5 -17 2 9 2 25 0 35 -3 9 -5 1 -5 -18z"/>
<path d="M6966 6963 c7 -4 14 -19 17 -33 4 -22 5 -21 4 4 -1 17 -9 31 -17 33
-10 3 -11 2 -4 -4z"/>
<path d="M7014 6955 c-8 -21 2 -45 19 -45 8 0 20 7 27 15 10 12 10 18 0 30 -7
8 -19 15 -27 15 -7 0 -16 -7 -19 -15z m36 -15 c0 -11 -7 -20 -15 -20 -8 0 -15
9 -15 20 0 11 7 20 15 20 8 0 15 -9 15 -20z"/>
<path d="M7084 6959 c-4 -7 1 -16 12 -22 17 -10 17 -11 -1 -18 -16 -6 -17 -8
-3 -8 25 -1 33 20 12 32 -17 10 -17 11 1 18 16 6 17 8 3 8 -9 1 -20 -4 -24
-10z"/>
<path d="M9774 6940 c1 -18 7 -26 24 -28 19 -3 22 1 21 30 -2 30 -2 31 -6 6
-5 -34 -30 -37 -36 -5 -3 19 -4 19 -3 -3z"/>
<path d="M9841 6936 c1 -21 3 -25 6 -11 3 11 9 25 14 31 5 7 3 11 -6 11 -10 0
-15 -10 -14 -31z"/>
<path d="M9896 6962 c-2 -4 4 -8 15 -8 10 0 19 4 19 8 0 4 -6 8 -14 8 -8 0
-17 -4 -20 -8z"/>
<path d="M9954 6956 c-10 -26 4 -48 28 -44 17 2 23 10 23 28 0 18 -6 26 -23
28 -13 2 -25 -3 -28 -12z m46 -16 c0 -11 -6 -20 -14 -20 -18 0 -29 16 -21 30
11 18 35 11 35 -10z"/>
<path d="M10021 6958 c-2 -28 10 -48 30 -48 15 0 19 7 18 33 -2 31 -2 31 -6 4
-5 -33 -25 -31 -34 4 -4 14 -7 17 -8 7z"/>
<path d="M10154 6956 c-10 -25 3 -46 28 -45 23 0 23 0 -2 11 l-25 11 23 5 c13
2 21 9 19 15 -6 19 -36 20 -43 3z m33 -2 c-3 -3 -12 -4 -19 -1 -8 3 -5 6 6 6
11 1 17 -2 13 -5z"/>
<path d="M10222 6940 c0 -19 2 -27 5 -17 2 9 2 25 0 35 -3 9 -5 1 -5 -18z"/>
<path d="M11685 6941 c-15 -20 -15 -23 -2 -12 15 12 17 10 17 -25 l0 -39 -21
25 c-18 22 -19 22 -10 3 6 -12 16 -25 21 -28 6 -3 10 -24 10 -46 0 -37 -2 -40
-22 -35 l-23 6 23 -11 c12 -7 22 -19 23 -28 0 -14 1 -14 6 -1 4 8 14 21 25 28
24 17 23 58 -2 72 -27 15 -29 90 -2 91 13 0 14 2 2 6 -8 3 -17 9 -20 13 -3 4
-14 -4 -25 -19z m53 -134 c-6 -38 -28 -31 -28 8 0 33 2 36 15 25 9 -7 15 -22
13 -33z"/>
<path d="M13830 6940 c0 -16 5 -30 10 -30 6 0 10 14 10 30 0 17 -4 30 -10 30
-5 0 -10 -13 -10 -30z"/>
<path d="M1285 6894 c-22 -32 -41 -62 -43 -66 -2 -5 14 -8 37 -8 36 0 40 -3
44 -27 l4 -28 2 27 c0 16 8 28 19 31 15 4 15 5 0 6 -14 1 -18 13 -20 63 l-3
61 -40 -59z m35 -19 c0 -45 0 -45 -35 -45 l-35 0 32 45 c18 25 33 45 35 45 2
0 3 -20 3 -45z"/>
<path d="M1418 6943 c-2 -5 0 -46 3 -93 l5 -85 2 93 c2 83 -1 106 -10 85z"/>
<path d="M4708 6943 c12 -2 30 -2 40 0 9 3 -1 5 -23 4 -22 0 -30 -2 -17 -4z"/>
<path d="M4838 6943 c-2 -5 0 -46 3 -93 l5 -85 2 93 c2 83 -1 106 -10 85z"/>
<path d="M8135 6894 c-22 -32 -41 -62 -43 -66 -2 -5 14 -8 37 -8 36 0 40 -3
44 -27 l4 -28 2 27 c0 16 8 28 19 31 15 4 15 5 0 6 -14 1 -18 13 -20 63 l-3
61 -40 -59z m35 -19 c0 -45 0 -45 -35 -45 l-35 0 32 45 c18 25 33 45 35 45 2
0 3 -20 3 -45z"/>
<path d="M8233 6924 c-15 -24 -15 -29 -2 -53 16 -28 45 -39 61 -23 6 6 1 8
-15 5 -19 -4 -28 1 -37 17 -24 45 24 92 58 58 7 -7 12 -35 12 -63 0 -54 -15
-78 -55 -88 -20 -5 -20 -5 1 -6 31 -2 54 21 64 62 20 91 -43 157 -87 91z"/>
<path d="M10714 6939 c-10 -17 13 -36 27 -22 12 12 4 33 -11 33 -5 0 -12 -5
-16 -11z m26 -9 c0 -5 -4 -10 -10 -10 -5 0 -10 5 -10 10 0 6 5 10 10 10 6 0
10 -4 10 -10z"/>
<path d="M11532 6858 c1 -51 3 -74 5 -50 6 57 34 58 63 2 11 -22 23 -40 25
-40 3 0 -4 19 -16 42 -19 37 -19 42 -5 50 19 11 21 59 4 76 -7 7 -27 12 -45
12 l-33 0 2 -92z m62 76 c9 -4 16 -18 16 -34 0 -28 -15 -40 -51 -40 -16 0 -19
7 -19 40 0 41 13 50 54 34z"/>
<path d="M11870 6929 c-22 -18 -22 -19 -3 -10 22 11 22 10 26 -71 l3 -83 2 93
c1 50 1 92 0 92 -2 0 -14 -10 -28 -21z"/>
<path d="M11956 6934 c-32 -32 -10 -94 34 -94 10 0 22 5 26 12 5 8 10 6 15 -8
5 -14 8 -8 8 21 2 70 -45 108 -83 69z m66 -20 c9 -18 9 -30 1 -42 -22 -36 -73
-21 -73 22 0 48 53 63 72 20z"/>
<path d="M12103 6943 c26 -2 47 -6 47 -9 0 -3 -7 -19 -16 -35 -8 -17 -14 -33
-12 -35 2 -2 14 17 26 41 l22 45 -58 -2 c-56 -2 -57 -2 -9 -5z"/>
<path d="M12285 6894 c-22 -32 -41 -62 -43 -66 -2 -5 14 -8 37 -8 36 0 40 -3
44 -27 l4 -28 2 27 c0 16 8 28 19 31 15 4 15 5 0 6 -14 1 -18 13 -20 63 l-3
61 -40 -59z m35 -19 c0 -45 0 -45 -35 -45 l-35 0 32 45 c18 25 33 45 35 45 2
0 3 -20 3 -45z"/>
<path d="M12393 6942 c-6 -4 6 -7 27 -7 21 0 33 3 27 7 -7 4 -19 8 -27 8 -8 0
-20 -4 -27 -8z"/>
<path d="M6390 6930 c0 -5 5 -10 11 -10 5 0 7 5 4 10 -3 6 -8 10 -11 10 -2 0
-4 -4 -4 -10z"/>
<path d="M10107 6923 c3 -7 6 -13 8 -13 2 0 5 6 8 13 3 8 -1 14 -8 14 -7 0
-11 -6 -8 -14z"/>
<path d="M12524 6928 c-4 -7 -3 -8 4 -4 8 5 12 -19 15 -76 l3 -83 2 88 c2 81
-6 105 -24 75z"/>
<path d="M3065 6920 c-16 -7 -17 -9 -3 -9 9 -1 20 4 23 9 7 11 7 11 -20 0z"/>
<path d="M4681 6903 c-1 -26 3 -33 18 -33 36 0 51 -12 51 -40 0 -31 -14 -46
-50 -53 l-25 -4 26 -2 c40 -2 61 20 57 59 -2 30 -8 36 -35 44 -23 7 -33 17
-36 35 -3 22 -4 21 -6 -6z"/>
<path d="M10491 6904 c0 -11 3 -14 6 -6 3 7 2 16 -1 19 -3 4 -6 -2 -5 -13z"/>
<path d="M12458 6897 c-3 -19 -2 -25 4 -19 6 6 8 18 6 28 -3 14 -5 12 -10 -9z"/>
<path d="M13158 6913 c6 -2 18 -2 25 0 6 3 1 5 -13 5 -14 0 -19 -2 -12 -5z"/>
<path d="M12101 6814 c-6 -21 -9 -40 -6 -42 2 -2 8 13 14 34 6 21 9 40 6 42
-2 2 -8 -13 -14 -34z"/>
<path d="M12409 6833 c-13 -16 -12 -17 4 -4 9 7 17 15 17 17 0 8 -8 3 -21 -13z"/>
<path d="M6434 6793 c9 -18 16 -40 17 -50 1 -10 5 -2 9 17 5 19 7 37 4 39 -2
2 -4 -2 -4 -10 0 -9 -8 -5 -21 11 l-20 25 15 -32z"/>
<path d="M6564 6793 c9 -18 16 -40 17 -50 1 -10 5 -2 9 17 5 19 7 37 4 39 -2
2 -4 -2 -4 -10 0 -9 -8 -5 -21 11 l-20 25 15 -32z"/>
<path d="M9728 6813 c7 -3 16 -2 19 1 4 3 -2 6 -13 5 -11 0 -14 -3 -6 -6z"/>
<path d="M9856 6805 c3 -11 9 -32 13 -48 l6 -28 11 36 c8 26 8 33 1 26 -8 -8
-15 -5 -25 11 -11 18 -12 19 -6 3z"/>
<path d="M9986 6805 c3 -11 9 -32 13 -48 l6 -28 11 36 c8 26 8 33 1 26 -8 -8
-15 -5 -25 11 -11 18 -12 19 -6 3z"/>
<path d="M12012 6800 c-6 -10 -24 -20 -39 -23 -28 -4 -28 -4 -2 -6 24 -1 69
33 58 44 -3 2 -10 -4 -17 -15z"/>
<path d="M3067 6783 c-3 -5 5 -8 18 -8 13 0 21 3 18 8 -2 4 -10 7 -18 7 -8 0
-16 -3 -18 -7z"/>
<path d="M6298 6783 c7 -3 16 -2 19 1 4 3 -2 6 -13 5 -11 0 -14 -3 -6 -6z"/>
<path d="M6484 6776 c-10 -26 4 -48 28 -44 17 2 23 10 23 28 0 18 -6 26 -23
28 -13 2 -25 -3 -28 -12z m46 -16 c0 -11 -6 -20 -14 -20 -18 0 -29 16 -21 30
11 18 35 11 35 -10z"/>
<path d="M9728 6783 c7 -3 16 -2 19 1 4 3 -2 6 -13 5 -11 0 -14 -3 -6 -6z"/>
<path d="M9917 6783 c-3 -5 5 -8 18 -8 13 0 21 3 18 8 -2 4 -10 7 -18 7 -8 0
-16 -3 -18 -7z"/>
<path d="M12370 6778 c0 -4 24 -7 53 -7 54 1 49 5 -15 11 -21 2 -38 0 -38 -4z"/>
<path d="M13358 6783 c7 -3 16 -2 19 1 4 3 -2 6 -13 5 -11 0 -14 -3 -6 -6z"/>
<path d="M13295 6770 c3 -5 8 -10 11 -10 2 0 4 5 4 10 0 6 -5 10 -11 10 -5 0
-7 -4 -4 -10z"/>
<path d="M13425 6770 c3 -5 8 -10 11 -10 2 0 4 5 4 10 0 6 -5 10 -11 10 -5 0
-7 -4 -4 -10z"/>
<path d="M6348 6763 c7 -3 16 -2 19 1 4 3 -2 6 -13 5 -11 0 -14 -3 -6 -6z"/>
<path d="M9778 6763 c7 -3 16 -2 19 1 4 3 -2 6 -13 5 -11 0 -14 -3 -6 -6z"/>
<path d="M3067 6738 c2 -5 10 -8 18 -8 8 0 16 3 18 8 3 4 -5 7 -18 7 -13 0
-21 -3 -18 -7z"/>
<path d="M9917 6738 c2 -5 10 -8 18 -8 8 0 16 3 18 8 3 4 -5 7 -18 7 -13 0
-21 -3 -18 -7z"/>
<path d="M6348 6733 c7 -3 16 -2 19 1 4 3 -2 6 -13 5 -11 0 -14 -3 -6 -6z"/>
<path d="M9778 6733 c7 -3 16 -2 19 1 4 3 -2 6 -13 5 -11 0 -14 -3 -6 -6z"/>
<path d="M13348 6733 c6 -2 18 -2 25 0 6 3 1 5 -13 5 -14 0 -19 -2 -12 -5z"/>
<path d="M2378 6093 c7 -3 16 -2 19 1 4 3 -2 6 -13 5 -11 0 -14 -3 -6 -6z"/>
<path d="M2428 6093 c7 -3 16 -2 19 1 4 3 -2 6 -13 5 -11 0 -14 -3 -6 -6z"/>
<path d="M2598 6093 c7 -3 16 -2 19 1 4 3 -2 6 -13 5 -11 0 -14 -3 -6 -6z"/>
<path d="M3498 6093 c7 -3 16 -2 19 1 4 3 -2 6 -13 5 -11 0 -14 -3 -6 -6z"/>
<path d="M2708 6073 c7 -3 16 -2 19 1 4 3 -2 6 -13 5 -11 0 -14 -3 -6 -6z"/>
<path d="M3588 6073 c7 -3 16 -2 19 1 4 3 -2 6 -13 5 -11 0 -14 -3 -6 -6z"/>
<path d="M2378 6053 c7 -3 16 -2 19 1 4 3 -2 6 -13 5 -11 0 -14 -3 -6 -6z"/>
<path d="M2598 6053 c7 -3 16 -2 19 1 4 3 -2 6 -13 5 -11 0 -14 -3 -6 -6z"/>
<path d="M2758 6053 c7 -3 16 -2 19 1 4 3 -2 6 -13 5 -11 0 -14 -3 -6 -6z"/>
<path d="M3308 6053 c7 -3 16 -2 19 1 4 3 -2 6 -13 5 -11 0 -14 -3 -6 -6z"/>
<path d="M3448 6053 c7 -3 16 -2 19 1 4 3 -2 6 -13 5 -11 0 -14 -3 -6 -6z"/>
<path d="M3788 6053 c7 -3 16 -2 19 1 4 3 -2 6 -13 5 -11 0 -14 -3 -6 -6z"/>
<path d="M1193 5725 c0 -27 2 -40 4 -27 3 15 11 22 28 22 17 0 25 -7 28 -22 2
-13 4 0 4 27 0 28 -2 40 -4 28 -3 -16 -11 -23 -28 -23 -17 0 -25 7 -28 23 -2
12 -4 0 -4 -28z"/>
<path d="M2142 5723 c1 -44 2 -45 5 -10 2 20 8 35 14 32 5 -3 6 1 3 9 -12 32
-24 15 -22 -31z"/>
<path d="M2216 5761 c-4 -7 -5 -15 -2 -18 9 -9 19 4 14 18 -4 11 -6 11 -12 0z"/>
<path d="M1294 5736 c-9 -23 0 -51 16 -52 9 0 10 1 3 3 -21 7 -15 23 8 23 14
0 19 5 17 17 -4 23 -36 29 -44 9z m36 -6 c0 -5 -7 -10 -15 -10 -8 0 -15 5 -15
10 0 6 7 10 15 10 8 0 15 -4 15 -10z"/>
<path d="M1370 5746 c0 -2 7 -6 15 -10 8 -3 15 -1 15 4 0 6 -7 10 -15 10 -8 0
-15 -2 -15 -4z"/>
<path d="M1435 5739 c-11 -16 -1 -19 13 -3 7 8 8 14 3 14 -5 0 -13 -5 -16 -11z"/>
<path d="M1603 5740 c9 -6 17 -17 17 -25 0 -8 -8 -19 -17 -24 -10 -6 -13 -11
-7 -11 6 0 17 7 25 16 14 18 3 45 -22 51 -8 3 -7 0 4 -7z"/>
<path d="M1654 5721 c0 -21 7 -36 16 -38 10 -3 11 -2 3 4 -6 4 -13 22 -16 38
-4 27 -5 27 -3 -4z"/>
<path d="M1730 5716 c0 -20 2 -36 4 -36 8 0 12 61 4 66 -4 3 -8 -11 -8 -30z"/>
<path d="M1818 5743 c7 -3 16 -2 19 1 4 3 -2 6 -13 5 -11 0 -14 -3 -6 -6z"/>
<path d="M1930 5743 c5 -2 10 -15 10 -28 0 -13 -5 -26 -10 -28 -6 -3 -5 -4 2
-3 7 2 13 15 13 31 0 16 -6 29 -13 31 -7 1 -8 0 -2 -3z"/>
<path d="M1980 5735 c-15 -18 -4 -46 21 -53 8 -2 5 2 -5 10 -12 9 -17 21 -13
32 10 25 35 19 40 -9 4 -23 4 -23 3 2 -1 32 -26 42 -46 18z"/>
<path d="M2061 5734 c0 -11 3 -14 6 -6 3 7 2 16 -1 19 -3 4 -6 -2 -5 -13z"/>
<path d="M2269 5734 c-16 -19 -1 -48 27 -51 13 -2 11 1 -6 8 l-25 12 25 7 c25
8 25 8 2 9 -14 1 -20 5 -17 12 4 6 14 8 22 5 8 -3 11 -1 8 4 -9 14 -21 12 -36
-6z"/>
<path d="M2334 5738 c-4 -6 0 -16 9 -23 22 -16 21 -22 0 -28 -16 -4 -16 -5 -1
-6 24 -2 34 20 15 34 -22 16 -21 22 1 28 15 4 15 5 0 6 -9 0 -20 -4 -24 -11z"/>
<path d="M1572 5715 c0 -16 2 -22 5 -12 2 9 2 23 0 30 -3 6 -5 -1 -5 -18z"/>
<path d="M1367 5713 c-10 -10 -8 -33 3 -33 5 0 7 6 4 14 -3 8 2 16 13 19 14 4
14 5 2 6 -9 0 -19 -2 -22 -6z"/>
<path d="M1430 5701 c0 -10 19 -25 25 -20 1 2 -3 10 -11 17 -8 7 -14 8 -14 3z"/>
<path d="M1513 5700 c2 -8 12 -16 23 -17 13 -2 15 -1 4 4 -8 3 -19 11 -23 17
-6 7 -7 6 -4 -4z"/>
<path d="M2185 5700 c-3 -5 -1 -10 4 -10 6 0 11 5 11 10 0 6 -2 10 -4 10 -3 0
-8 -4 -11 -10z"/>
<path d="M1820 5690 c0 -5 5 -10 11 -10 5 0 7 5 4 10 -3 6 -8 10 -11 10 -2 0
-4 -4 -4 -10z"/>
<path d="M6108 5303 c7 -3 16 -2 19 1 4 3 -2 6 -13 5 -11 0 -14 -3 -6 -6z"/>
<path d="M6168 5303 c7 -3 16 -2 19 1 4 3 -2 6 -13 5 -11 0 -14 -3 -6 -6z"/>
<path d="M8368 5303 c7 -3 16 -2 19 1 4 3 -2 6 -13 5 -11 0 -14 -3 -6 -6z"/>
<path d="M8428 5303 c7 -3 16 -2 19 1 4 3 -2 6 -13 5 -11 0 -14 -3 -6 -6z"/>
<path d="M6108 5273 c7 -3 16 -2 19 1 4 3 -2 6 -13 5 -11 0 -14 -3 -6 -6z"/>
<path d="M6170 5271 c13 -10 13 -12 0 -22 -13 -9 -13 -10 0 -6 8 2 15 10 15
17 0 7 -7 15 -15 17 -13 4 -13 3 0 -6z"/>
<path d="M8368 5273 c7 -3 16 -2 19 1 4 3 -2 6 -13 5 -11 0 -14 -3 -6 -6z"/>
<path d="M8430 5273 c15 -7 12 -21 -5 -26 -11 -4 -10 -4 2 -3 21 2 25 28 5 32
-7 1 -8 0 -2 -3z"/>
<path d="M6108 5243 c7 -3 16 -2 19 1 4 3 -2 6 -13 5 -11 0 -14 -3 -6 -6z"/>
<path d="M8368 5243 c7 -3 16 -2 19 1 4 3 -2 6 -13 5 -11 0 -14 -3 -6 -6z"/>
<path d="M10628 5203 c7 -3 16 -2 19 1 4 3 -2 6 -13 5 -11 0 -14 -3 -6 -6z"/>
<path d="M10630 5173 c15 -7 12 -21 -5 -26 -11 -4 -10 -4 2 -3 21 2 25 28 5
32 -7 1 -8 0 -2 -3z"/>
<path d="M10673 5153 c9 -2 23 -2 30 0 6 3 -1 5 -18 5 -16 0 -22 -2 -12 -5z"/>
<path d="M11750 4890 c0 -12 7 -20 18 -20 14 0 15 2 2 10 -13 9 -13 11 0 20
13 8 12 10 -2 10 -11 0 -18 -8 -18 -20z"/>
<path d="M11822 4870 c0 -19 2 -27 5 -17 2 9 2 25 0 35 -3 9 -5 1 -5 -18z"/>
<path d="M7238 4843 c7 -3 16 -2 19 1 4 3 -2 6 -13 5 -11 0 -14 -3 -6 -6z"/>
<path d="M7305 4840 c-3 -5 -1 -10 4 -10 6 0 11 5 11 10 0 6 -2 10 -4 10 -3 0
-8 -4 -11 -10z"/>
<path d="M9498 4843 c7 -3 16 -2 19 1 4 3 -2 6 -13 5 -11 0 -14 -3 -6 -6z"/>
<path d="M9565 4840 c-3 -5 -1 -10 4 -10 6 0 11 5 11 10 0 6 -2 10 -4 10 -3 0
-8 -4 -11 -10z"/>
<path d="M11758 4843 c7 -3 16 -2 19 1 4 3 -2 6 -13 5 -11 0 -14 -3 -6 -6z"/>
<path d="M7238 4813 c7 -3 16 -2 19 1 4 3 -2 6 -13 5 -11 0 -14 -3 -6 -6z"/>
<path d="M9500 4811 c13 -10 13 -12 0 -22 -13 -9 -13 -10 0 -6 8 2 15 10 15
17 0 7 -7 15 -15 17 -13 4 -13 3 0 -6z"/>
<path d="M7293 4793 c9 -2 23 -2 30 0 6 3 -1 5 -18 5 -16 0 -22 -2 -12 -5z"/>
<path d="M9553 4793 c9 -2 23 -2 30 0 6 3 -1 5 -18 5 -16 0 -22 -2 -12 -5z"/>
<path d="M7238 4783 c7 -3 16 -2 19 1 4 3 -2 6 -13 5 -11 0 -14 -3 -6 -6z"/>
<path d="M2786 4691 c-19 -7 -19 -8 2 -13 15 -4 22 -2 22 8 0 8 -1 14 -2 13
-2 0 -12 -4 -22 -8z"/>
<path d="M2713 4663 c9 -2 23 -2 30 0 6 3 -1 5 -18 5 -16 0 -22 -2 -12 -5z"/>
<path d="M3908 4513 c6 -2 18 -2 25 0 6 3 1 5 -13 5 -14 0 -19 -2 -12 -5z"/>
<path d="M3843 4463 c9 -2 23 -2 30 0 6 3 -1 5 -18 5 -16 0 -22 -2 -12 -5z"/>
<path d="M12935 4410 c-3 -6 1 -7 9 -4 18 7 21 14 7 14 -6 0 -13 -4 -16 -10z"/>
<path d="M12943 4384 c19 -6 23 -20 7 -27 -6 -3 -5 -4 2 -3 21 4 15 31 -7 33
-16 1 -16 1 -2 -3z"/>
<path d="M12873 4363 c9 -2 23 -2 30 0 6 3 -1 5 -18 5 -16 0 -22 -2 -12 -5z"/>
<path d="M14082 3890 c0 -19 2 -27 5 -17 2 9 2 25 0 35 -3 9 -5 1 -5 -18z"/>
<path d="M14013 3873 c9 -2 23 -2 30 0 6 3 -1 5 -18 5 -16 0 -22 -2 -12 -5z"/>
<path d="M1583 3803 c9 -2 23 -2 30 0 6 3 -1 5 -18 5 -16 0 -22 -2 -12 -5z"/>
<path d="M1643 3803 c9 -2 23 -2 30 0 6 3 -1 5 -18 5 -16 0 -22 -2 -12 -5z"/>
<path d="M4973 3803 c9 -2 23 -2 30 0 6 3 -1 5 -18 5 -16 0 -22 -2 -12 -5z"/>
<path d="M5033 3803 c9 -2 23 -2 30 0 6 3 -1 5 -18 5 -16 0 -22 -2 -12 -5z"/>
<path d="M11678 3513 c7 -3 16 -2 19 1 4 3 -2 6 -13 5 -11 0 -14 -3 -6 -6z"/>
<path d="M14028 3493 c7 -3 16 -2 19 1 4 3 -2 6 -13 5 -11 0 -14 -3 -6 -6z"/>
<path d="M1740 3480 c-9 -6 -10 -10 -3 -10 6 0 15 5 18 10 8 12 4 12 -15 0z"/>
<path d="M4010 3480 c-9 -6 -10 -10 -3 -10 6 0 15 5 18 10 8 12 4 12 -15 0z"/>
<path d="M5130 3480 c-9 -6 -10 -10 -3 -10 6 0 15 5 18 10 8 12 4 12 -15 0z"/>
<path d="M8500 3480 c-9 -6 -10 -10 -3 -10 6 0 15 5 18 10 8 12 4 12 -15 0z"/>
<path d="M9660 3480 c-9 -6 -10 -10 -3 -10 6 0 15 5 18 10 8 12 4 12 -15 0z"/>
<path d="M14170 3480 c-9 -6 -10 -10 -3 -10 6 0 15 5 18 10 8 12 4 12 -15 0z"/>
<path d="M2688 3473 c7 -3 16 -2 19 1 4 3 -2 6 -13 5 -11 0 -14 -3 -6 -6z"/>
<path d="M4898 3473 c7 -3 16 -2 19 1 4 3 -2 6 -13 5 -11 0 -14 -3 -6 -6z"/>
<path d="M9398 3473 c7 -3 16 -2 19 1 4 3 -2 6 -13 5 -11 0 -14 -3 -6 -6z"/>
<path d="M10598 3473 c7 -3 16 -2 19 1 4 3 -2 6 -13 5 -11 0 -14 -3 -6 -6z"/>
<path d="M13988 3473 c7 -3 16 -2 19 1 4 3 -2 6 -13 5 -11 0 -14 -3 -6 -6z"/>
<path d="M4958 3453 c7 -3 16 -2 19 1 4 3 -2 6 -13 5 -11 0 -14 -3 -6 -6z"/>
<path d="M7188 3453 c7 -3 16 -2 19 1 4 3 -2 6 -13 5 -11 0 -14 -3 -6 -6z"/>
<path d="M9458 3453 c7 -3 16 -2 19 1 4 3 -2 6 -13 5 -11 0 -14 -3 -6 -6z"/>
<path d="M14028 3453 c7 -3 16 -2 19 1 4 3 -2 6 -13 5 -11 0 -14 -3 -6 -6z"/>
<path d="M8193 2940 c0 -30 2 -43 4 -27 2 15 2 39 0 55 -2 15 -4 2 -4 -28z"/>
<path d="M8220 2940 c0 -29 3 -51 6 -48 7 8 8 88 0 95 -3 4 -6 -18 -6 -47z"/>
<path d="M8553 2940 c0 -30 2 -43 4 -27 2 15 2 39 0 55 -2 15 -4 2 -4 -28z"/>
<path d="M8813 2940 c0 -30 2 -43 4 -27 2 15 2 39 0 55 -2 15 -4 2 -4 -28z"/>
<path d="M1173 2973 c12 -3 17 -16 19 -46 l1 -42 4 40 c3 22 10 43 16 47 7 4
-4 7 -23 7 -19 -1 -27 -3 -17 -6z"/>
<path d="M2070 2933 c0 -25 2 -44 4 -42 8 10 13 89 5 89 -5 0 -9 -21 -9 -47z"/>
<path d="M2139 2959 c-7 -13 -7 -19 -1 -15 6 4 12 -7 15 -26 3 -26 4 -22 5 15
2 52 -2 57 -19 26z"/>
<path d="M8041 2933 c1 -27 4 -38 6 -26 2 12 12 24 21 26 15 4 15 5 0 6 -10 0
-18 7 -18 15 0 8 8 17 18 19 13 4 11 5 -5 6 -21 1 -23 -3 -22 -46z"/>
<path d="M8416 2971 c-4 -5 3 -7 14 -4 23 6 26 13 6 13 -8 0 -17 -4 -20 -9z"/>
<path d="M9130 2933 c0 -25 2 -44 4 -42 8 10 13 89 5 89 -5 0 -9 -21 -9 -47z"/>
<path d="M9199 2959 c-7 -13 -7 -19 -1 -15 6 4 12 -7 15 -26 3 -26 4 -22 5 15
2 52 -2 57 -19 26z"/>
<path d="M1278 2930 c-3 -17 -1 -33 4 -36 4 -3 8 11 8 30 0 44 -6 47 -12 6z"/>
<path d="M1311 2921 c1 -28 3 -30 6 -11 3 14 9 30 14 36 5 7 3 11 -6 11 -11 0
-15 -11 -14 -36z"/>
<path d="M1360 2926 c0 -20 2 -36 4 -36 8 0 12 61 4 66 -4 3 -8 -11 -8 -30z"/>
<path d="M1473 2950 c9 -6 17 -18 17 -26 0 -20 -30 -30 -41 -13 -6 10 -9 11
-9 1 0 -21 30 -26 48 -8 18 18 8 47 -19 53 -8 3 -7 0 4 -7z"/>
<path d="M1524 2931 c0 -21 7 -36 16 -38 10 -3 11 -2 3 4 -6 4 -13 22 -16 38
-4 27 -5 27 -3 -4z"/>
<path d="M1563 2925 c0 -22 2 -30 4 -17 2 12 2 30 0 40 -3 9 -5 -1 -4 -23z"/>
<path d="M1590 2955 c0 -5 5 -17 10 -25 5 -8 10 -10 10 -5 0 6 -5 17 -10 25
-5 8 -10 11 -10 5z"/>
<path d="M1635 2949 c-4 -6 -5 -12 -2 -15 2 -3 7 2 10 11 7 17 1 20 -8 4z"/>
<path d="M1669 2944 c-16 -19 -1 -48 27 -51 13 -2 11 1 -6 8 l-25 12 25 7 c25
8 25 8 2 9 -14 1 -20 5 -17 12 4 6 14 8 22 5 8 -3 11 -1 8 4 -9 14 -21 12 -36
-6z"/>
<path d="M1741 2944 c0 -11 3 -14 6 -6 3 7 2 16 -1 19 -3 4 -6 -2 -5 -13z"/>
<path d="M1821 2914 c1 -27 3 -41 6 -31 2 9 9 15 14 11 14 -8 39 15 38 35 0
10 -4 8 -10 -7 -11 -28 -34 -24 -34 6 0 11 -4 24 -8 28 -4 4 -6 -15 -6 -42z"/>
<path d="M1933 2950 c9 -6 17 -17 17 -25 0 -8 -8 -19 -17 -24 -10 -6 -13 -11
-7 -11 6 0 17 7 25 16 14 18 3 45 -22 51 -8 3 -7 0 4 -7z"/>
<path d="M1981 2921 c1 -28 3 -30 6 -11 3 14 9 30 14 36 5 7 3 11 -6 11 -11 0
-15 -11 -14 -36z"/>
<path d="M2220 2953 c5 -2 10 -9 10 -14 0 -14 -28 -11 -34 4 -3 6 -4 -1 -3
-18 1 -22 7 -30 22 -32 16 -1 16 -1 3 3 -25 7 -22 24 3 24 23 0 24 31 1 36 -7
1 -8 0 -2 -3z"/>
<path d="M2264 2948 c-4 -6 0 -16 9 -23 22 -16 21 -22 0 -28 -16 -4 -16 -5 -1
-6 26 -2 33 20 12 36 -16 12 -17 15 -4 23 9 6 10 10 3 10 -6 0 -15 -5 -19 -12z"/>
<path d="M8115 2951 c-4 -7 0 -8 10 -4 10 3 21 0 27 -8 8 -12 9 -11 5 1 -5 18
-33 25 -42 11z"/>
<path d="M8255 2950 c3 -5 8 -10 11 -10 2 0 4 5 4 10 0 6 -5 10 -11 10 -5 0
-7 -4 -4 -10z"/>
<path d="M8310 2956 c0 -2 7 -6 15 -10 8 -3 15 -1 15 4 0 6 -7 10 -15 10 -8 0
-15 -2 -15 -4z"/>
<path d="M8490 2956 c0 -2 7 -6 15 -10 8 -3 15 -1 15 4 0 6 -7 10 -15 10 -8 0
-15 -2 -15 -4z"/>
<path d="M8603 2954 c20 -6 23 -24 5 -24 -9 0 -10 -3 -2 -8 6 -4 14 -14 17
-22 4 -8 5 1 4 20 -1 27 -7 35 -22 37 -16 1 -16 1 -2 -3z"/>
<path d="M8661 2944 c0 -11 3 -14 6 -6 3 7 2 16 -1 19 -3 4 -6 -2 -5 -13z"/>
<path d="M8750 2956 c0 -2 7 -6 15 -10 8 -3 15 -1 15 4 0 6 -7 10 -15 10 -8 0
-15 -2 -15 -4z"/>
<path d="M8880 2915 c0 -27 2 -46 4 -44 8 8 10 78 3 85 -4 4 -7 -14 -7 -41z"/>
<path d="M8921 2942 c12 -21 12 -25 -6 -39 -11 -8 -14 -13 -6 -11 29 8 37 36
17 55 -18 17 -18 17 -5 -5z"/>
<path d="M8993 2950 c9 -6 17 -18 17 -26 0 -20 -30 -30 -41 -13 -6 10 -9 11
-9 1 0 -21 30 -26 48 -8 18 18 8 47 -19 53 -8 3 -7 0 4 -7z"/>
<path d="M9043 2925 c0 -22 2 -30 4 -17 2 12 2 30 0 40 -3 9 -5 -1 -4 -23z"/>
<path d="M9254 2946 c-9 -23 0 -51 16 -52 9 0 10 1 3 3 -21 7 -15 23 8 23 14
0 19 5 17 17 -4 23 -36 29 -44 9z m36 -6 c0 -5 -7 -10 -15 -10 -8 0 -15 5 -15
10 0 6 7 10 15 10 8 0 15 -4 15 -10z"/>
<path d="M9324 2948 c-4 -6 0 -16 9 -23 22 -16 21 -22 0 -28 -16 -4 -16 -5 -1
-6 26 -2 33 20 12 36 -16 12 -17 15 -4 23 9 6 10 10 3 10 -6 0 -15 -5 -19 -12z"/>
<path d="M1902 2925 c0 -16 2 -22 5 -12 2 9 2 23 0 30 -3 6 -5 -1 -5 -18z"/>
<path d="M8430 2931 l25 -20 -25 -10 c-15 -6 -19 -10 -9 -10 24 -1 43 24 27
36 -26 20 -42 24 -18 4z"/>
<path d="M2101 2925 c0 -5 3 -16 8 -23 7 -11 9 -10 14 3 4 9 3 14 -2 10 -5 -3
-12 1 -14 7 -3 7 -6 9 -6 3z"/>
<path d="M8307 2923 c-10 -10 -8 -33 3 -33 5 0 7 6 4 14 -3 8 2 16 13 19 14 4
14 5 2 6 -9 0 -19 -2 -22 -6z"/>
<path d="M8487 2923 c-10 -10 -8 -33 3 -33 5 0 7 6 4 14 -3 8 2 16 13 19 14 4
14 5 2 6 -9 0 -19 -2 -22 -6z"/>
<path d="M8747 2923 c-10 -10 -8 -33 3 -33 5 0 7 6 4 14 -3 8 2 16 13 19 14 4
14 5 2 6 -9 0 -19 -2 -22 -6z"/>
<path d="M9161 2925 c0 -5 3 -16 8 -23 7 -11 9 -10 14 3 4 9 3 14 -2 10 -5 -3
-12 1 -14 7 -3 7 -6 9 -6 3z"/>
<path d="M8150 2911 c0 -8 -8 -11 -20 -8 -11 3 -18 1 -14 -4 3 -5 11 -9 19 -9
16 0 30 18 21 27 -3 4 -6 1 -6 -6z"/>
<path d="M8580 2911 c0 -10 19 -25 25 -20 1 2 -3 10 -11 17 -8 7 -14 8 -14 3z"/>
<path d="M1240 2900 c0 -5 5 -10 11 -10 5 0 7 5 4 10 -3 6 -8 10 -11 10 -2 0
-4 -4 -4 -10z"/>
<path d="M1610 2899 c0 -5 5 -7 10 -4 6 3 10 8 10 11 0 2 -4 4 -10 4 -5 0 -10
-5 -10 -11z"/>
<path d="M8948 2643 c7 -3 16 -2 19 1 4 3 -2 6 -13 5 -11 0 -14 -3 -6 -6z"/>
<path d="M9900 2646 c0 -2 7 -7 16 -10 8 -3 12 -2 9 4 -6 10 -25 14 -25 6z"/>
<path d="M11570 2646 c0 -2 7 -7 16 -10 8 -3 12 -2 9 4 -6 10 -25 14 -25 6z"/>
<path d="M13678 2643 c7 -3 16 -2 19 1 4 3 -2 6 -13 5 -11 0 -14 -3 -6 -6z"/>
<path d="M14188 2643 c6 -2 18 -2 25 0 6 3 1 5 -13 5 -14 0 -19 -2 -12 -5z"/>
<path d="M8328 2610 c2 -16 6 -30 8 -30 2 0 4 14 4 30 0 17 -4 30 -8 30 -5 0
-7 -13 -4 -30z"/>
<path d="M12578 2610 c2 -16 6 -30 8 -30 2 0 4 14 4 30 0 17 -4 30 -8 30 -5 0
-7 -13 -4 -30z"/>
<path d="M8886 2618 c3 -4 12 -8 20 -8 8 0 14 4 14 8 0 4 -9 8 -19 8 -11 0
-17 -4 -15 -8z"/>
<path d="M9556 2621 c-3 -5 2 -15 12 -22 15 -12 16 -12 5 2 -7 9 -10 19 -6 22
3 4 4 7 0 7 -3 0 -8 -4 -11 -9z"/>
<path d="M10606 2621 c-3 -5 2 -15 12 -22 15 -12 16 -12 5 2 -7 9 -10 19 -6
22 3 4 4 7 0 7 -3 0 -8 -4 -11 -9z"/>
<path d="M11656 2621 c-3 -5 2 -15 12 -22 15 -12 16 -12 5 2 -7 9 -10 19 -6
22 3 4 4 7 0 7 -3 0 -8 -4 -11 -9z"/>
<path d="M14136 2618 c3 -4 12 -8 20 -8 8 0 14 4 14 8 0 4 -9 8 -19 8 -11 0
-17 -4 -15 -8z"/>
<path d="M11580 2611 c13 -10 13 -12 0 -22 -13 -9 -13 -10 0 -6 8 2 15 10 15
17 0 7 -7 15 -15 17 -13 4 -13 3 0 -6z"/>
<path d="M12618 2613 c7 -3 16 -2 19 1 4 3 -2 6 -13 5 -11 0 -14 -3 -6 -6z"/>
<path d="M9468 2593 c6 -2 18 -2 25 0 6 3 1 5 -13 5 -14 0 -19 -2 -12 -5z"/>
<path d="M8368 2583 c7 -3 16 -2 19 1 4 3 -2 6 -13 5 -11 0 -14 -3 -6 -6z"/>
<path d="M9368 2583 c7 -3 16 -2 19 1 4 3 -2 6 -13 5 -11 0 -14 -3 -6 -6z"/>
<path d="M9908 2583 c7 -3 16 -2 19 1 4 3 -2 6 -13 5 -11 0 -14 -3 -6 -6z"/>
<path d="M10418 2583 c7 -3 16 -2 19 1 4 3 -2 6 -13 5 -11 0 -14 -3 -6 -6z"/>
<path d="M10468 2583 c7 -3 16 -2 19 1 4 3 -2 6 -13 5 -11 0 -14 -3 -6 -6z"/>
<path d="M10948 2583 c7 -3 16 -2 19 1 4 3 -2 6 -13 5 -11 0 -14 -3 -6 -6z"/>
<path d="M10998 2583 c7 -3 16 -2 19 1 4 3 -2 6 -13 5 -11 0 -14 -3 -6 -6z"/>
<path d="M11468 2583 c7 -3 16 -2 19 1 4 3 -2 6 -13 5 -11 0 -14 -3 -6 -6z"/>
<path d="M11518 2583 c7 -3 16 -2 19 1 4 3 -2 6 -13 5 -11 0 -14 -3 -6 -6z"/>
<path d="M11998 2583 c7 -3 16 -2 19 1 4 3 -2 6 -13 5 -11 0 -14 -3 -6 -6z"/>
<path d="M12048 2583 c7 -3 16 -2 19 1 4 3 -2 6 -13 5 -11 0 -14 -3 -6 -6z"/>
<path d="M12098 2583 c7 -3 16 -2 19 1 4 3 -2 6 -13 5 -11 0 -14 -3 -6 -6z"/>
<path d="M12528 2583 c7 -3 16 -2 19 1 4 3 -2 6 -13 5 -11 0 -14 -3 -6 -6z"/>
<path d="M13048 2583 c7 -3 16 -2 19 1 4 3 -2 6 -13 5 -11 0 -14 -3 -6 -6z"/>
<path d="M13138 2583 c7 -3 16 -2 19 1 4 3 -2 6 -13 5 -11 0 -14 -3 -6 -6z"/>
<path d="M13568 2583 c7 -3 16 -2 19 1 4 3 -2 6 -13 5 -11 0 -14 -3 -6 -6z"/>
<path d="M13038 333 c7 -3 16 -2 19 1 4 3 -2 6 -13 5 -11 0 -14 -3 -6 -6z"/>
<path d="M14070 336 c0 -2 9 -6 20 -9 11 -3 18 -1 14 4 -5 9 -34 13 -34 5z"/>
<path d="M11015 310 c-3 -6 1 -7 9 -4 18 7 21 14 7 14 -6 0 -13 -4 -16 -10z"/>
<path d="M9600 300 c-9 -6 -10 -10 -3 -10 6 0 15 5 18 10 8 12 4 12 -15 0z"/>
<path d="M12230 300 c-9 -6 -10 -10 -3 -10 6 0 15 5 18 10 8 12 4 12 -15 0z"/>
<path d="M13270 300 c-9 -6 -10 -10 -3 -10 6 0 15 5 18 10 8 12 4 12 -15 0z"/>
<path d="M8878 293 c7 -3 16 -2 19 1 4 3 -2 6 -13 5 -11 0 -14 -3 -6 -6z"/>
<path d="M9888 293 c7 -3 16 -2 19 1 4 3 -2 6 -13 5 -11 0 -14 -3 -6 -6z"/>
<path d="M11968 293 c7 -3 16 -2 19 1 4 3 -2 6 -13 5 -11 0 -14 -3 -6 -6z"/>
<path d="M12558 293 c7 -3 16 -2 19 1 4 3 -2 6 -13 5 -11 0 -14 -3 -6 -6z"/>
<path d="M14138 293 c7 -3 16 -2 19 1 4 3 -2 6 -13 5 -11 0 -14 -3 -6 -6z"/>
<path d="M9428 273 c7 -3 16 -2 19 1 4 3 -2 6 -13 5 -11 0 -14 -3 -6 -6z"/>
<path d="M12028 273 c7 -3 16 -2 19 1 4 3 -2 6 -13 5 -11 0 -14 -3 -6 -6z"/>
<path d="M12508 273 c7 -3 16 -2 19 1 4 3 -2 6 -13 5 -11 0 -14 -3 -6 -6z"/>
<path d="M14178 273 c7 -3 16 -2 19 1 4 3 -2 6 -13 5 -11 0 -14 -3 -6 -6z"/>
</g>
</svg>
